# xmcd
# 
# Track frame offsets:
#     150
#     16737
#     32172
# 
# Disc length: 743
# 
# Revision: 1
# Processed by: cddbd v1.5.1PL2 Copyright (c) Steve Scherf et al.
# Submitted via: BonkEnc v1.0beta3
# 
DISCID=1702e503
DTITLE=Real Life - God Tonight
DYEAR=1900
DGENRE=
TTITLE0=God Tonight(Radio Version)
TTITLE1=God Tonight(Edited Version)
TTITLE2=God Tonight(Extended Dance Mix)
EXTD=
EXTT0=
EXTT1=
EXTT2=
PLAYORDER=
